# xmcd
#
# Track frame offsets:
#  150
#  14022
#  31965
#  48977
#  66503
#  83711
#  104502
#  123397
#  142560
#  159343
#  179786
#  197106
#
# Disc length: 2808 seconds
#
# Revision: 0
# Processed by: cddbd v1.5.1PL2 Copyright (c) Steve Scherf et al.
# Submitted via: Collectorz.com_Music_Collector 6.9
#
DISCID=a40af60c
DTITLE=Jamie O' Neal - Shiver
DYEAR=2001
DGENRE=
TTITLE0=When I Think About Angels
TTITLE1=There Is No Arizona
TTITLE2=Where We Belong
TTITLE3=No More Protecting My Heart
TTITLE4=She Hasn't Heard It Yet
TTITLE5=You Rescued Me
TTITLE6=Shiver
TTITLE7=The Only Thing Wrong
TTITLE8=I'm Still Waiting
TTITLE9=I'm Not Gonna Do Anything Without You (duet with Mark Wills)
TTITLE10=Sanctuary
TTITLE11=Frantic
EXTD=
EXTT0=
EXTT1=
EXTT2=
EXTT3=
EXTT4=
EXTT5=
EXTT6=
EXTT7=
EXTT8=
EXTT9=
EXTT10=
EXTT11=
PLAYORDER=
